<svg xmlns="http://www.w3.org/2000/svg" width="490" height="490" viewBox="0 0 490 490"><rect width="100%" height="100%" fill="#DDDDDD"/><path fill="#1045CC" d="M123.49 266.475h38.73v14.87h-56.75v-96.88h18.02v82.01Zm79.4-54.94q7.64 0 13.9 2.47 6.27 2.48 10.72 7.04 4.46 4.56 6.87 11.12 2.41 6.57 2.41 14.67 0 8.18-2.41 14.74-2.41 6.57-6.87 11.19-4.45 4.63-10.72 7.11-6.26 2.48-13.9 2.48-7.71 0-14-2.48-6.3-2.48-10.76-7.11-4.45-4.62-6.9-11.19-2.44-6.56-2.44-14.74 0-8.1 2.44-14.67 2.45-6.56 6.9-11.12 4.46-4.56 10.76-7.04 6.29-2.47 14-2.47Zm0 58.08q8.58 0 12.7-5.76 4.12-5.76 4.12-16.88t-4.12-16.95q-4.12-5.83-12.7-5.83-8.71 0-12.9 5.86-4.19 5.86-4.19 16.92 0 11.05 4.19 16.85 4.19 5.79 12.9 5.79Zm71.69-24.32q3.08 0 5.36-.83 2.28-.84 3.79-2.32 1.5-1.47 2.27-3.55.77-2.07.77-4.55 0-5.09-3.04-8.08-3.05-2.98-9.15-2.98-6.1 0-9.15 2.98-3.04 2.99-3.04 8.08 0 2.41.77 4.49.77 2.07 2.27 3.58 1.51 1.51 3.82 2.35 2.31.83 5.33.83Zm18.69 39.13q0-2.01-1.2-3.28-1.21-1.27-3.29-1.98-2.07-.7-4.85-1.04-2.78-.33-5.9-.5-3.12-.17-6.43-.3-3.32-.13-6.47-.54-2.74 1.54-4.45 3.62t-1.71 4.83q0 1.81.9 3.38.91 1.57 2.88 2.71 1.98 1.14 5.13 1.78 3.15.64 7.7.64 4.63 0 7.98-.71 3.35-.7 5.52-1.94 2.18-1.24 3.19-2.95 1-1.71 1-3.72Zm-3.28-69.48h19.76v6.17q0 2.94-3.55 3.61l-6.16 1.14q1.41 3.55 1.41 7.78 0 5.09-2.05 9.21-2.04 4.12-5.66 7t-8.54 4.46q-4.93 1.57-10.62 1.57-2.01 0-3.89-.2-1.87-.2-3.68-.54-3.22 1.95-3.22 4.36 0 2.07 1.91 3.05 1.91.97 5.06 1.37 3.15.4 7.17.5 4.02.1 8.24.44 4.22.33 8.24 1.17 4.02.84 7.17 2.65 3.15 1.81 5.06 4.92 1.91 3.12 1.91 8.01 0 4.55-2.25 8.84-2.24 4.29-6.5 7.64-4.25 3.35-10.45 5.39-6.19 2.05-14.1 2.05-7.77 0-13.53-1.51-5.77-1.51-9.59-4.02-3.81-2.51-5.69-5.8-1.88-3.28-1.88-6.83 0-4.82 2.92-8.07 2.91-3.25 8-5.2-2.74-1.4-4.35-3.75-1.61-2.34-1.61-6.16 0-1.54.57-3.18.57-1.65 1.68-3.25 1.1-1.61 2.78-3.05 1.67-1.44 3.95-2.58-5.23-2.82-8.21-7.51-2.98-4.69-2.98-10.98 0-5.1 2.04-9.22 2.05-4.12 5.7-7.03 3.65-2.92 8.64-4.46t10.89-1.54q4.42 0 8.31.91 3.88.9 7.1 2.64Zm60.63-3.41q7.64 0 13.91 2.47 6.26 2.48 10.72 7.04 4.45 4.56 6.86 11.12 2.42 6.57 2.42 14.67 0 8.18-2.42 14.74-2.41 6.57-6.86 11.19-4.46 4.63-10.72 7.11-6.27 2.48-13.91 2.48-7.7 0-14-2.48t-10.75-7.11q-4.46-4.62-6.9-11.19-2.45-6.56-2.45-14.74 0-8.1 2.45-14.67 2.44-6.56 6.9-11.12 4.45-4.56 10.75-7.04 6.3-2.47 14-2.47Zm0 58.08q8.58 0 12.7-5.76 4.12-5.76 4.12-16.88t-4.12-16.95q-4.12-5.83-12.7-5.83-8.71 0-12.89 5.86-4.19 5.86-4.19 16.92 0 11.05 4.19 16.85 4.18 5.79 12.89 5.79Z"/></svg>